<svg version="1.1" preserveAspectRatio="none" xmlns="http://www.w3.org/2000/svg" width="500" height="500" viewBox="0 0 500 500"><rect width="100%" height="100%" fill="#FFFFFF" fill-opacity="1"/><svg viewBox="291.0886 667.1105 472.6723 218" width="333" height="153.58209059426582" x="83.5px" y="173.209px" xmlns="http://www.w3.org/2000/svg" xmlns:xlink="http://www.w3.org/1999/xlink" preserveAspectRatio="none"><defs></defs><style>.companyName {fill:#4D4D4D;fill-opacity:1;}.icon1 {fill:#FF834F;fill-opacity:1;}.icon2 {fill:#FF4949;fill-opacity:1;}.icon3 {fill:#FFAE78;fill-opacity:1;}.icon3-str {stroke:#FFAE78;stroke-opacity:1;}.shapeStroke-str {stroke:#313131;stroke-opacity:1;}.text {fill:#4D4D4D;fill-opacity:1;}</style><g opacity="1" transform="rotate(0 291.0886 679.1105)">
<svg width="130.95" height="194" x="291.0886" y="679.1105" version="1.1" preserveAspectRatio="none" viewBox="46 20 108 160">
  <g transform="matrix(1 0 0 1 0 0)"><g><path d="M100 104.195c-16.817 0-30.5-13.632-30.5-30.389s13.683-30.39 30.5-30.39 30.499 13.633 30.499 30.39-13.682 30.389-30.499 30.389zm0-57.946c-15.249 0-27.655 12.362-27.655 27.557S84.751 101.362 100 101.362 127.654 89 127.654 73.806 115.249 46.249 100 46.249z" data-color="1" class="icon1"></path><path d="M85.461 89.708c-8.801 0-15.961-7.134-15.961-15.903a1.42 1.42 0 0 1 1.422-1.417 1.42 1.42 0 0 1 1.422 1.417c0 7.206 5.883 13.069 13.116 13.069s13.116-5.863 13.116-13.069c0-.783.638-1.417 1.422-1.417s1.422.634 1.422 1.417c.002 8.77-7.158 15.903-15.959 15.903z" data-color="1" class="icon1"></path><path d="M129.076 75.222a1.42 1.42 0 0 1-1.422-1.417c0-7.207-5.883-13.07-13.115-13.07-7.233 0-13.116 5.863-13.116 13.07 0 .783-.638 1.417-1.422 1.417s-1.422-.634-1.422-1.417c0-8.769 7.16-15.903 15.961-15.903 8.8 0 15.96 7.134 15.96 15.903a1.422 1.422 0 0 1-1.424 1.417z" data-color="1" class="icon1"></path><path d="M100.945 180h-1.891a1.422 1.422 0 0 1-1.307-.859c-6.124-14.252-15.053-27.639-23.689-40.586C59.629 116.926 46 96.495 46 73.806 46 44.137 70.225 20 100 20s54 24.137 54 53.806c0 22.69-13.629 43.12-28.057 64.75-8.637 12.946-17.567 26.333-23.691 40.586-.224.52-.738.858-1.307.858zm-.957-2.833h.022c6.209-14.165 15.029-27.386 23.564-40.18 14.184-21.263 27.581-41.347 27.581-63.181 0-28.107-22.948-50.973-51.155-50.973S48.845 45.699 48.845 73.806c0 21.834 13.397 41.918 27.581 63.182 8.533 12.793 17.353 26.013 23.562 40.179z" data-color="1" class="icon1"></path></g></g>
</svg>
</g><g opacity="1" transform="rotate(0 486.0386 834.1105)">
<svg width="171.3014" height="24" x="486.0386" y="834.1105" version="1.1" preserveAspectRatio="none" viewBox="3.76 -29.68 213.84 29.959999999999997">
  <g transform="matrix(1 0 0 1 0 0)" class="text"><path id="id-6izo4zJp8" d="M15.28-28Q18.92-28 21.62-26.80Q24.32-25.60 25.76-23.36Q27.20-21.12 27.20-18.04L27.20-18.04Q27.20-15 25.76-12.74Q24.32-10.48 21.62-9.28Q18.92-8.08 15.28-8.08L15.28-8.08L8.96-8.08L8.96 0L3.76 0L3.76-28L15.28-28ZM15.04-12.48Q18.44-12.48 20.20-13.92Q21.96-15.36 21.96-18.04L21.96-18.04Q21.96-20.72 20.20-22.16Q18.44-23.60 15.04-23.60L15.04-23.60L8.96-23.60L8.96-12.48L15.04-12.48Z M36.32 0L36.32-29.68L41.32-29.68L41.32 0L36.32 0Z M60.04-21.60Q64.76-21.60 67.26-19.34Q69.76-17.08 69.76-12.52L69.76-12.52L69.76 0L65.04 0L65.04-2.60Q64.12-1.20 62.42-0.46Q60.72 0.28 58.32 0.28L58.32 0.28Q55.92 0.28 54.12-0.54Q52.32-1.36 51.34-2.82Q50.36-4.28 50.36-6.12L50.36-6.12Q50.36-9 52.50-10.74Q54.64-12.48 59.24-12.48L59.24-12.48L64.76-12.48L64.76-12.80Q64.76-15.04 63.42-16.24Q62.08-17.44 59.44-17.44L59.44-17.44Q57.64-17.44 55.90-16.88Q54.16-16.32 52.96-15.32L52.96-15.32L51-18.96Q52.68-20.24 55.04-20.92Q57.40-21.60 60.04-21.60L60.04-21.60ZM59.36-3.36Q61.24-3.36 62.70-4.22Q64.16-5.08 64.76-6.68L64.76-6.68L64.76-9.16L59.60-9.16Q55.28-9.16 55.28-6.32L55.28-6.32Q55.28-4.96 56.36-4.16Q57.44-3.36 59.36-3.36L59.36-3.36Z M90.16 0.28Q86.84 0.28 84.20-1.12Q81.56-2.52 80.08-5.02Q78.60-7.52 78.60-10.68L78.60-10.68Q78.60-13.84 80.08-16.32Q81.56-18.80 84.18-20.20Q86.80-21.60 90.16-21.60L90.16-21.60Q93.32-21.60 95.70-20.32Q98.08-19.04 99.28-16.64L99.28-16.64L95.44-14.40Q94.52-15.88 93.14-16.62Q91.76-17.36 90.12-17.36L90.12-17.36Q87.32-17.36 85.48-15.54Q83.64-13.72 83.64-10.68L83.64-10.68Q83.64-7.64 85.46-5.82Q87.28-4 90.12-4L90.12-4Q91.76-4 93.14-4.74Q94.52-5.48 95.44-6.96L95.44-6.96L99.28-4.72Q98.04-2.32 95.66-1.02Q93.28 0.28 90.16 0.28L90.16 0.28Z M127.36-10.56Q127.36-10.04 127.28-9.08L127.28-9.08L110.52-9.08Q110.96-6.72 112.82-5.34Q114.68-3.96 117.44-3.96L117.44-3.96Q120.96-3.96 123.24-6.28L123.24-6.28L125.92-3.20Q124.48-1.48 122.28-0.60Q120.08 0.28 117.32 0.28L117.32 0.28Q113.80 0.28 111.12-1.12Q108.44-2.52 106.98-5.02Q105.52-7.52 105.52-10.68L105.52-10.68Q105.52-13.80 106.94-16.30Q108.36-18.80 110.88-20.20Q113.40-21.60 116.56-21.60L116.56-21.60Q119.68-21.60 122.14-20.22Q124.60-18.84 125.98-16.34Q127.36-13.84 127.36-10.56L127.36-10.56ZM116.56-17.60Q114.16-17.60 112.50-16.18Q110.84-14.76 110.48-12.40L110.48-12.40L122.60-12.40Q122.28-14.72 120.64-16.16Q119-17.60 116.56-17.60L116.56-17.60Z M178.16-21.60Q182.20-21.60 184.56-19.26Q186.92-16.92 186.92-12.24L186.92-12.24L186.92 0L181.92 0L181.92-11.60Q181.92-14.40 180.68-15.82Q179.44-17.24 177.12-17.24L177.12-17.24Q174.60-17.24 173.08-15.58Q171.56-13.92 171.56-10.84L171.56-10.84L171.56 0L166.56 0L166.56-11.60Q166.56-14.40 165.32-15.82Q164.08-17.24 161.76-17.24L161.76-17.24Q159.20-17.24 157.70-15.60Q156.20-13.96 156.20-10.84L156.20-10.84L156.20 0L151.20 0L151.20-21.36L155.96-21.36L155.96-18.64Q157.16-20.08 158.96-20.84Q160.76-21.60 162.96-21.60L162.96-21.60Q165.36-21.60 167.22-20.70Q169.08-19.80 170.16-18.04L170.16-18.04Q171.48-19.72 173.56-20.66Q175.64-21.60 178.16-21.60L178.16-21.60Z M217.60-10.56Q217.60-10.04 217.52-9.08L217.52-9.08L200.76-9.08Q201.20-6.72 203.06-5.34Q204.92-3.96 207.68-3.96L207.68-3.96Q211.20-3.96 213.48-6.28L213.48-6.28L216.16-3.20Q214.72-1.48 212.52-0.60Q210.32 0.28 207.56 0.28L207.56 0.28Q204.04 0.28 201.36-1.12Q198.68-2.52 197.22-5.02Q195.76-7.52 195.76-10.68L195.76-10.68Q195.76-13.80 197.18-16.30Q198.60-18.80 201.12-20.20Q203.64-21.60 206.80-21.60L206.80-21.60Q209.92-21.60 212.38-20.22Q214.84-18.84 216.22-16.34Q217.60-13.84 217.60-10.56L217.60-10.56ZM206.80-17.60Q204.40-17.60 202.74-16.18Q201.08-14.76 200.72-12.40L200.72-12.40L212.84-12.40Q212.52-14.72 210.88-16.16Q209.24-17.60 206.80-17.60L206.80-17.60Z"/></g>
</svg>
</g><g opacity="1" transform="rotate(0 486.0386 694.1105)">
<svg width="277.7223" height="120" x="486.0386" y="694.1105" version="1.1" preserveAspectRatio="none" viewBox="3.32 -28 64.80000000000001 28">
  <g transform="matrix(1 0 0 1 0 0)" class="companyName"><path id="id-D6z1nYkh2" d="M15.44-28Q19.16-28 21.90-26.76Q24.64-25.52 26.12-23.24Q27.60-20.96 27.60-17.84L27.60-17.84Q27.60-14.76 26.12-12.46Q24.64-10.16 21.90-8.94Q19.16-7.72 15.44-7.72L15.44-7.72L9.80-7.72L9.80 0L3.32 0L3.32-28L15.44-28ZM15.08-13Q18-13 19.52-14.26Q21.04-15.52 21.04-17.84L21.04-17.84Q21.04-20.20 19.52-21.46Q18-22.72 15.08-22.72L15.08-22.72L9.80-22.72L9.80-13L15.08-13Z M59.32-21.84Q63.36-21.84 65.74-19.46Q68.12-17.08 68.12-12.32L68.12-12.32L68.12 0L61.88 0L61.88-11.36Q61.88-13.92 60.82-15.18Q59.76-16.44 57.80-16.44L57.80-16.44Q55.60-16.44 54.32-15.02Q53.04-13.60 53.04-10.80L53.04-10.80L53.04 0L46.80 0L46.80-11.36Q46.80-16.44 42.72-16.44L42.72-16.44Q40.56-16.44 39.28-15.02Q38-13.60 38-10.80L38-10.80L38 0L31.76 0L31.76-21.52L37.72-21.52L37.72-19.04Q38.92-20.40 40.66-21.12Q42.40-21.84 44.48-21.84L44.48-21.84Q46.76-21.84 48.60-20.94Q50.44-20.04 51.56-18.32L51.56-18.32Q52.88-20 54.90-20.92Q56.92-21.84 59.32-21.84L59.32-21.84Z"/></g>
</svg>
</g><g opacity="1" transform="rotate(0 452.0386 667.1105)">
<svg width="6" height="218" x="452.0386" y="667.1105" version="1.1" preserveAspectRatio="none" viewBox="0 0 6 218">
  <defs><rect x="0" y="0" width="6" height="218" rx="0px" ry="0px" id="id-tBXipXk0b1705486487437"></rect></defs><use class="companyName shapeStroke-str" style="stroke-width:0;" xlink:href="#id-tBXipXk0b1705486487437"></use>
</svg>
</g></svg></svg>