<svg width="991" height="457" viewBox="0 0 991 457" fill="none" xmlns="http://www.w3.org/2000/svg">
<g clip-path="url(#clip0_135_56)">
<g clip-path="url(#clip1_135_56)">
<path d="M137.183 239.034C94.4606 239.034 59.7 204.402 59.7 161.832C59.7 119.263 94.4606 84.6289 137.183 84.6289C179.905 84.6289 214.663 119.263 214.663 161.832C214.663 204.402 179.905 239.034 137.183 239.034ZM137.183 91.8259C98.444 91.8259 66.9275 123.231 66.9275 161.832C66.9275 200.434 98.444 231.837 137.183 231.837C175.922 231.837 207.436 200.432 207.436 161.832C207.436 123.233 175.922 91.8259 137.183 91.8259Z" fill="url(#paint0_linear_135_56)"/>
<path d="M100.248 202.23C77.8894 202.23 59.7 184.107 59.7 161.83C59.702 160.873 60.0836 159.957 60.761 159.282C61.4384 158.607 62.3561 158.229 63.3124 158.23C64.2687 158.229 65.1864 158.607 65.8638 159.282C66.5412 159.957 66.9229 160.873 66.9249 161.83C66.9249 180.136 81.8703 195.031 100.245 195.031C118.62 195.031 133.565 180.136 133.565 161.83C133.565 159.841 135.186 158.23 137.178 158.23C139.17 158.23 140.79 159.841 140.79 161.83C140.795 184.109 122.606 202.23 100.248 202.23Z" fill="url(#paint1_linear_135_56)"/>
<path d="M211.049 165.429C210.092 165.431 209.174 165.052 208.497 164.377C207.82 163.702 207.438 162.786 207.436 161.83C207.436 143.521 192.491 128.626 174.118 128.626C155.743 128.626 140.798 143.521 140.798 161.83C140.798 163.819 139.177 165.429 137.186 165.429C135.194 165.429 133.573 163.819 133.573 161.83C133.573 139.553 151.763 121.429 174.121 121.429C196.477 121.429 214.666 139.553 214.666 161.83C214.663 162.786 214.28 163.703 213.602 164.378C212.924 165.052 212.005 165.431 211.049 165.429Z" fill="url(#paint2_linear_135_56)"/>
<path d="M139.584 431.61H134.78C134.074 431.611 133.383 431.405 132.793 431.017C132.203 430.629 131.739 430.077 131.459 429.428C115.902 393.222 93.2184 359.213 71.2793 326.322C34.6235 271.376 0 219.472 0 161.832C0 86.4604 61.5419 25.1421 137.183 25.1421C212.824 25.1421 274.366 86.4604 274.366 161.832C274.366 219.475 239.743 271.376 203.089 326.325C181.148 359.213 158.462 393.222 142.904 429.431C142.335 430.752 141.029 431.61 139.584 431.61ZM137.153 424.413H137.208C152.982 388.428 175.389 354.841 197.071 322.339C233.105 268.322 267.139 217.3 267.139 161.832C267.139 90.4285 208.841 32.3391 137.183 32.3391C65.5252 32.3391 7.22752 90.4285 7.22752 161.832C7.22752 217.3 41.2616 268.322 77.295 322.342C98.9725 354.841 121.379 388.426 137.153 424.413Z" fill="url(#paint3_linear_135_56)"/>
</g>
<g clip-path="url(#clip2_135_56)">
<path d="M427.794 352.718C431.867 352.718 435.414 353.389 438.435 354.732C441.456 356.074 443.772 357.999 445.384 360.505C446.995 363.012 447.801 365.988 447.801 369.434C447.801 372.836 446.995 375.801 445.384 378.33C443.772 380.859 441.456 382.795 438.435 384.137C435.414 385.48 431.867 386.151 427.794 386.151H417.186V399.713H408.459V352.718H427.794ZM427.391 378.766C431.196 378.766 434.082 377.961 436.052 376.349C438.021 374.738 439.006 372.433 439.006 369.434C439.006 366.436 438.021 364.131 436.052 362.519C434.082 360.908 431.196 360.103 427.391 360.103H417.186V378.766H427.391ZM463.108 399.713V349.898H471.5V399.713H463.108ZM502.919 363.459C508.201 363.459 512.24 364.724 515.038 367.253C517.835 369.781 519.234 373.597 519.234 378.699V399.713H511.311V395.349C510.282 396.915 508.816 398.113 506.914 398.941C505.012 399.769 502.718 400.183 500.033 400.183C497.347 400.183 494.997 399.724 492.983 398.806C490.969 397.889 489.414 396.613 488.317 394.98C487.221 393.346 486.672 391.5 486.672 389.441C486.672 386.218 487.87 383.634 490.264 381.687C492.659 379.74 496.43 378.766 501.577 378.766H510.842V378.229C510.842 375.723 510.092 373.798 508.592 372.456C507.093 371.113 504.866 370.442 501.912 370.442C499.898 370.442 497.918 370.755 495.971 371.381C494.024 372.008 492.379 372.881 491.036 374L487.747 367.89C489.626 366.458 491.887 365.362 494.527 364.601C497.168 363.84 499.965 363.459 502.919 363.459ZM501.778 394.073C503.882 394.073 505.75 393.592 507.384 392.63C509.018 391.668 510.17 390.291 510.842 388.501V384.339H502.181C497.347 384.339 494.93 385.928 494.93 389.105C494.93 390.627 495.534 391.835 496.743 392.731C497.951 393.626 499.63 394.073 501.778 394.073ZM553.473 400.183C549.758 400.183 546.424 399.399 543.47 397.833C540.516 396.266 538.211 394.085 536.555 391.287C534.899 388.49 534.071 385.323 534.071 381.787C534.071 378.252 534.899 375.096 536.555 372.321C538.211 369.546 540.505 367.376 543.436 365.809C546.368 364.243 549.713 363.459 553.473 363.459C557.009 363.459 560.108 364.176 562.771 365.608C565.434 367.04 567.437 369.099 568.78 371.784L562.335 375.544C561.306 373.888 560.019 372.646 558.475 371.818C556.931 370.99 555.241 370.576 553.406 370.576C550.273 370.576 547.677 371.594 545.618 373.63C543.559 375.667 542.53 378.386 542.53 381.787C542.53 385.189 543.548 387.908 545.584 389.944C547.621 391.981 550.228 392.999 553.406 392.999C555.241 392.999 556.931 392.585 558.475 391.757C560.019 390.929 561.306 389.687 562.335 388.031L568.78 391.791C567.393 394.476 565.367 396.546 562.704 398.001C560.041 399.455 556.964 400.183 553.473 400.183ZM615.91 381.989C615.91 382.571 615.865 383.399 615.775 384.473H587.645C588.138 387.114 589.424 389.206 591.506 390.75C593.587 392.294 596.172 393.066 599.26 393.066C603.199 393.066 606.443 391.768 608.995 389.172L613.493 394.342C611.882 396.266 609.845 397.721 607.383 398.706C604.922 399.69 602.147 400.183 599.059 400.183C595.12 400.183 591.651 399.399 588.652 397.833C585.654 396.266 583.337 394.085 581.704 391.287C580.07 388.49 579.253 385.323 579.253 381.787C579.253 378.296 580.048 375.152 581.637 372.355C583.226 369.558 585.43 367.376 588.25 365.809C591.069 364.243 594.247 363.459 597.783 363.459C601.274 363.459 604.396 364.231 607.148 365.776C609.901 367.32 612.049 369.49 613.594 372.288C615.138 375.085 615.91 378.319 615.91 381.989ZM597.783 370.173C595.097 370.173 592.826 370.967 590.969 372.556C589.111 374.145 587.981 376.26 587.578 378.901H607.92C607.562 376.305 606.466 374.201 604.631 372.59C602.796 370.979 600.513 370.173 597.783 370.173ZM701.173 363.459C705.693 363.459 709.274 364.769 711.915 367.387C714.555 370.005 715.876 373.933 715.876 379.169V399.713H707.484V380.243C707.484 377.11 706.79 374.749 705.402 373.161C704.015 371.572 702.023 370.777 699.427 370.777C696.607 370.777 694.347 371.706 692.646 373.563C690.946 375.421 690.095 378.073 690.095 381.519V399.713H681.703V380.243C681.703 377.11 681.009 374.749 679.622 373.161C678.235 371.572 676.243 370.777 673.647 370.777C670.782 370.777 668.511 371.695 666.833 373.53C665.154 375.365 664.315 378.028 664.315 381.519V399.713H655.923V363.862H663.912V368.427C665.255 366.816 666.933 365.585 668.947 364.735C670.961 363.885 673.199 363.459 675.661 363.459C678.346 363.459 680.73 363.963 682.811 364.97C684.892 365.977 686.537 367.465 687.745 369.434C689.222 367.555 691.125 366.089 693.452 365.037C695.779 363.985 698.353 363.459 701.173 363.459ZM767.369 381.989C767.369 382.571 767.324 383.399 767.235 384.473H739.105C739.597 387.114 740.884 389.206 742.965 390.75C745.046 392.294 747.631 393.066 750.719 393.066C754.658 393.066 757.903 391.768 760.454 389.172L764.952 394.342C763.341 396.266 761.304 397.721 758.843 398.706C756.381 399.69 753.606 400.183 750.518 400.183C746.579 400.183 743.111 399.399 740.112 397.833C737.113 396.266 734.797 394.085 733.163 391.287C731.53 388.49 730.713 385.323 730.713 381.787C730.713 378.296 731.507 375.152 733.096 372.355C734.685 369.558 736.889 367.376 739.709 365.809C742.529 364.243 745.706 363.459 749.242 363.459C752.733 363.459 755.855 364.231 758.608 365.776C761.36 367.32 763.509 369.49 765.053 372.288C766.597 375.085 767.369 378.319 767.369 381.989ZM749.242 370.173C746.557 370.173 744.285 370.967 742.428 372.556C740.571 374.145 739.44 376.26 739.038 378.901H759.38C759.022 376.305 757.925 374.201 756.09 372.59C754.255 370.979 751.972 370.173 749.242 370.173Z" fill="black"/>
</g>
<g clip-path="url(#clip3_135_56)">
<path d="M517.292 56.5703C539.562 56.5703 558.898 60.2818 575.301 67.7048C591.704 75.1278 604.335 85.6636 613.195 99.3124C622.055 112.961 626.485 129.124 626.485 147.801C626.485 166.239 622.055 182.342 613.195 196.11C604.335 209.879 591.704 220.415 575.301 227.718C558.898 235.021 539.562 238.673 517.292 238.673H466.647V307.994H408.459V56.5703H517.292ZM514.06 191.262C531.54 191.262 544.83 187.49 553.93 179.948C563.029 172.405 567.579 161.689 567.579 147.801C567.579 133.674 563.029 122.838 553.93 115.296C544.83 107.753 531.54 103.982 514.06 103.982H466.647V191.262H514.06ZM911.321 111.884C935.506 111.884 954.722 119.007 968.97 133.255C983.218 147.502 990.342 168.873 990.342 197.368V307.994H934.309V205.988C934.309 190.663 931.136 179.229 924.79 171.686C918.445 164.144 909.405 160.372 897.672 160.372C884.501 160.372 874.085 164.623 866.422 173.123C858.76 181.624 854.928 194.255 854.928 211.016V307.994H798.895V205.988C798.895 175.578 786.683 160.372 762.258 160.372C749.327 160.372 739.031 164.623 731.368 173.123C723.705 181.624 719.874 194.255 719.874 211.016V307.994H663.841V114.757H717.36V137.026C724.543 128.885 733.343 122.659 743.76 118.349C754.176 114.039 765.61 111.884 778.062 111.884C791.711 111.884 804.043 114.577 815.059 119.965C826.074 125.353 834.934 133.195 841.638 143.491C849.541 133.434 859.538 125.652 871.631 120.145C883.723 114.637 896.953 111.884 911.321 111.884Z" fill="black"/>
</g>
<g clip-path="url(#clip4_135_56)">
<path d="M349.793 0H337.222V456.753H349.793V0Z" fill="black"/>
</g>
</g>
<defs>
<linearGradient id="paint0_linear_135_56" x1="137.182" y1="84.6289" x2="137.182" y2="239.034" gradientUnits="userSpaceOnUse">
<stop stop-color="#35369B"/>
<stop offset="1" stop-color="#3C3D89"/>
</linearGradient>
<linearGradient id="paint1_linear_135_56" x1="100.245" y1="158.23" x2="100.245" y2="202.23" gradientUnits="userSpaceOnUse">
<stop stop-color="#35369B"/>
<stop offset="1" stop-color="#3C3D89"/>
</linearGradient>
<linearGradient id="paint2_linear_135_56" x1="174.12" y1="121.429" x2="174.12" y2="165.429" gradientUnits="userSpaceOnUse">
<stop stop-color="#35369B"/>
<stop offset="1" stop-color="#3C3D89"/>
</linearGradient>
<linearGradient id="paint3_linear_135_56" x1="137.183" y1="25.1421" x2="137.183" y2="431.61" gradientUnits="userSpaceOnUse">
<stop stop-color="#35369B"/>
<stop offset="1" stop-color="#3C3D89"/>
</linearGradient>
<clipPath id="clip0_135_56">
<rect width="990.342" height="456.753" fill="white"/>
</clipPath>
<clipPath id="clip1_135_56">
<rect width="274.366" height="406.468" fill="white" transform="translate(0 25.1421)"/>
</clipPath>
<clipPath id="clip2_135_56">
<rect width="358.91" height="50.2847" fill="white" transform="translate(408.459 349.898)"/>
</clipPath>
<clipPath id="clip3_135_56">
<rect width="581.883" height="251.424" fill="white" transform="translate(408.459 56.5703)"/>
</clipPath>
<clipPath id="clip4_135_56">
<rect width="12.5712" height="456.753" fill="white" transform="translate(337.222)"/>
</clipPath>
</defs>
</svg>
